# xmcd
#
# Track frame offsets: 
#        150
#        13192
#        35380
#        50385
#        74890
#        92002
#        110632
#        126755
#        158162
#        173302
#
# Disc length: 2532 seconds
#
# Revision: 0
# Processed by: cddbd v1.4PL0 Copyright (c) Steve Scherf et al.
# Submitted via: ExactAudioCopy v0.90b2
#
DISCID=8009e20a
DTITLE=The O'Kanes - The Only Years
DYEAR=1900
DGENRE=Country
TTITLE0=Oh Darlin'
TTITLE1=Bluegrass Blues
TTITLE2=One True Love
TTITLE3=Highway 55
TTITLE4=All Because Of You
TTITLE5=When I Found You
TTITLE6=Tired Of The Runnin'
TTITLE7=Rocky Road
TTITLE8=This Ain't Love
TTITLE9=When We're Gone, Long Gone
EXTD=
EXTT0=
EXTT1=
EXTT2=
EXTT3=
EXTT4=
EXTT5=
EXTT6=
EXTT7=
EXTT8=
EXTT9=
PLAYORDER=
